# xmcd
#
# Track frame offsets: 
#        150
#        24594
#        43206
#        67942
#        85540
#        102100
#        136680
#        141681
#        154317
#        187375
#        205827
#        226612
#        247357
#        265477
#        282905
#
# Disc length: 4066 seconds
#
# Revision: 0
# Processed by: cddbd v1.5.2PL0 Copyright (c) Steve Scherf et al.
# Submitted via: ExactAudioCopy v1.0b3
#
DISCID=df0fe00f
DTITLE=Big Walter Horton - Bocce Boogie
DYEAR=2008
DGENRE=Blues
TTITLE0=Sugar Ray - Every Day I Have The Blues
TTITLE1=Walter's Boogie
TTITLE2=Trouble In Mind
TTITLE3=My Babe
TTITLE4=Johnny Nicholas - Cold Chills
TTITLE5=Johnny Nicholas - That's Why I'm Cryin'
TTITLE6=Johnny Nicholas - Bocce Boogie
TTITLE7=La Cucaracha
TTITLE8=Sweet Black Angel
TTITLE9=Baby Please Don't Go
TTITLE10=Hard Hearted Woman
TTITLE11=Little Bitty Girl
TTITLE12=Don`t Get Around
TTITLE13=Johnny Nicholas - Tell Me Why
TTITLE14=Ronnie 'Youngblood' Earl Horvath - Breakin' With The Earl
EXTD=
EXTT0=
EXTT1=
EXTT2=
EXTT3=
EXTT4=
EXTT5=
EXTT6=
EXTT7=
EXTT8=
EXTT9=
EXTT10=
EXTT11=
EXTT12=
EXTT13=
EXTT14=
PLAYORDER=
